<svg viewBox="0 0 44 44" xmlns="http://www.w3.org/2000/svg" fill-rule="evenodd" clip-rule="evenodd"><path d="M21.73 1.71a20 20 0 1 1 .01 40.02 20 20 0 0 1-.01-40.02z" fill="url(#a)"/><path d="M41.4 25.43a71.3 71.3 0 0 0-6.46 5.28c-4.49 4.22-7.07 7.52-9.94 10.73a20.01 20.01 0 0 0 16.4-16.01z" fill="#88a03e"/><path d="M14.83 7.94L1.73 22.61c.11 2.45.66 4.8 1.58 6.94L20.53 2.92l-5.7 5.02" fill="url(#b)"/><path d="M1.85 19.4a20.56 20.56 0 0 0-.12 3.2l13.1-14.66L1.86 19.4" fill="#88a03e"/><path d="M1.89 19.12L19.35 1.86A20.01 20.01 0 0 0 1.89 19.12z" fill="url(#c)"/><path d="M19.3 1.86L1.87 19.12c0 .1 0 .19-.02.28l13-11.46 5.69-5.02L3.31 29.56c.16.38.34.76.53 1.13l.12.23c.18.35.37.7.57 1.03l.03.06c.22.36.45.72.7 1.07l.11.16.67.89.11.14c.27.33.55.66.84.98l.02.02c.28.3.57.6.87.88l.13.13c.63.58 1.3 1.13 1.99 1.64l.1.07c.35.25.7.48 1.06.7l.01.02c.77.47 1.56.9 2.39 1.26l.05.03c.83.36 1.68.67 2.56.93l.04.01c1.33.38 2.72.63 4.16.72.06-11.5 4.02-25.85 10.12-37.93A20.14 20.14 0 0 0 19.3 1.86" fill="url(#d)"/><defs><radialGradient id="a" cx="0" cy="0" r="1" gradientUnits="userSpaceOnUse" gradientTransform="matrix(40.0288 0 0 39.9925 21.73 21.71)"><stop offset="0%" stop-color="#fff101"/><stop offset="100%" stop-color="#e6da1a"/></radialGradient><linearGradient id="b" x2="1" gradientUnits="userSpaceOnUse" gradientTransform="matrix(18.5672 -20.6884 20.7072 18.5503 1.86 22.71)"><stop offset="0%" stop-color="#cfdc5e"/><stop offset="100%" stop-color="#bfca65"/></linearGradient><linearGradient id="c" x2="1" gradientUnits="userSpaceOnUse" gradientTransform="matrix(17.2478 -13.4097 13.4219 17.2321 2 14.69)"><stop offset="0%" stop-color="#cfdc5e"/><stop offset="100%" stop-color="#bfca65"/></linearGradient><linearGradient id="d" x2="1" gradientUnits="userSpaceOnUse" gradientTransform="matrix(14.2898 -35.8573 35.8899 14.2768 11.02 38.03)"><stop offset="0%" stop-color="#d91963"/><stop offset="100%" stop-color="#981245"/></linearGradient></defs></svg>